HIERARCHY
ROOT Hips
{
  OFFSET 1.44925e-005 102.336 -0.101585
  CHANNELS 6 Xposition Yposition Zposition Zrotation Xrotation Yrotation
  JOINT LeftUpLeg
  {
    OFFSET 8.9458 -8.66707 0.101652
    CHANNELS 3 Zrotation Xrotation Yrotation
    JOINT LeftLeg
    {
      OFFSET 0 -44.4227 1.3727
      CHANNELS 3 Zrotation Xrotation Yrotation
      JOINT LeftFoot
      {
        OFFSET -0.253549 -42.0924 -1.46059
        CHANNELS 3 Zrotation Xrotation Yrotation
        JOINT LeftToes
        {
          OFFSET -0.04 -4.41509 8.4991
          CHANNELS 3 Zrotation Xrotation Yrotation
          End Site
          {
            OFFSET 0.08 -0.047448 9.77979
          }
        }
      }
    }
  }
  JOINT Spine
  {
    OFFSET 0 11.8905 0
    CHANNELS 3 Zrotation Xrotation Yrotation
    JOINT Spine1
    {
      OFFSET 0 25.6574 0.127663
      CHANNELS 3 Zrotation Xrotation Yrotation
      JOINT RightShoulder
      {
        OFFSET -8.99 -0.362252 -0.22
        CHANNELS 3 Zrotation Xrotation Yrotation
        JOINT RightArm
        {
          OFFSET -10.2827 -0.00338 0.322123
          CHANNELS 3 Zrotation Xrotation Yrotation
          JOINT RightForeArm
          {
            OFFSET -26.364 0.099144 -1.42434
            CHANNELS 3 Zrotation Xrotation Yrotation
            JOINT RightHand
            {
              OFFSET -22.0324 0.085362 1.02216
              CHANNELS 3 Zrotation Xrotation Yrotation
              End Site
              {
                OFFSET -13.3284 -0.6 1.50291
              }
            }
          }
        }
      }
      JOINT LeftShoulder1
      {
        OFFSET 8.99 -0.362252 -0.22
        CHANNELS 3 Zrotation Xrotation Yrotation
        JOINT LeftArm
        {
          OFFSET 10.2827 -0.00337999 0.322123
          CHANNELS 3 Zrotation Xrotation Yrotation
          JOINT LeftForeArm
          {
            OFFSET 26.2597 0.099144 -1.42434
            CHANNELS 3 Zrotation Xrotation Yrotation
            JOINT LeftHand
            {
              OFFSET 22.0902 0.085362 1.02216
              CHANNELS 3 Zrotation Xrotation Yrotation
              End Site
              {
                OFFSET 13.419 -0.6 1.50291
              }
            }
          }
        }
      }
      JOINT Head
      {
        OFFSET 0 8.73416 0.011341
        CHANNELS 3 Zrotation Xrotation Yrotation
        End Site
        {
          OFFSET -0.29 12.7742 2.51395
        }
      }
    }
  }
  JOINT RightUpLeg
  {
    OFFSET -8.9458 -8.66707 0.101652
    CHANNELS 3 Zrotation Xrotation Yrotation
    JOINT RightLeg
    {
      OFFSET 0 -44.4227 1.3727
      CHANNELS 3 Zrotation Xrotation Yrotation
      JOINT RightFoot
      {
        OFFSET 0.253549 -42.0924 -1.46059
        CHANNELS 3 Zrotation Xrotation Yrotation
        JOINT RightToes
        {
          OFFSET 0.04 -4.41509 8.4991
          CHANNELS 3 Zrotation Xrotation Yrotation
          End Site
          {
            OFFSET -0.08 -0.137448 9.77979
          }
        }
      }
    }
  }
}
MOTION
Frames:	19
Frame Time:	0.0333333
188.296 102.909 3.32964 -3.52605 -0.843865 -89.1239 -1.35205 4.19082 2.09738 0.119364 7.9851 18.4905 -1.96447 -12.2278 -0.0287893 -1.31556e-009 8.75248e-006 -1.48226e-008 1.4825 8.2822 -0.129318 -2.23193 -5.92342 0.340867 38.9874 1.76083 -0.0815304 38.0602 -17.0107 1.55391 7.28887 32.9942 10.607 -7.2731 9.65879 -1.16833 -42.7195 3.45525 -3.51495 -27.8007 -15.2837 6.98934 -2.42493 35.4201 -16.6432 5.82328 9.61819 -0.917488 2.61172 -1.27349 -5.75124 -0.423066 5.00077 -4.88086 0.963919 8.98344 -17.3559 3.04211 -14.5712 -0.0322631 0.0462048 0.000530889 0.662642 
188.296 102.909 3.31639 -3.49562 -0.849317 -89.102 -1.35682 4.15389 2.07479 0.138083 7.985 18.4927 -1.98715 -12.2087 -0.0287872 -1.31556e-009 8.75248e-006 -1.48226e-008 1.38026 8.09789 -0.116645 -2.08235 -5.66645 0.332584 38.8604 1.76083 -0.0815304 38.2009 -17.0212 1.7385 7.38399 32.8723 10.5124 -7.22484 9.65875 -1.17972 -42.807 3.46966 -3.53064 -27.8096 -15.494 6.89692 -2.38595 35.5497 -16.6413 5.82328 9.61819 -0.917488 2.58954 -0.867489 -5.12925 -0.426129 4.96891 -4.88703 0.980148 8.98747 -17.3835 3.08418 -14.5712 -0.0322631 0.0462048 0.000530889 0.662642 
188.296 102.909 3.28801 -3.44465 -0.872122 -89.0635 -1.3813 4.08991 2.02013 0.175592 7.98615 18.5059 -2.02115 -12.1749 -0.0287836 -1.31556e-009 8.75248e-006 -1.48226e-008 1.33346 7.84098 -0.113962 -2.06791 -5.31126 0.336559 38.8699 1.76083 -0.0815304 38.2488 -17.3001 2.05259 7.46358 33.2835 10.2762 -7.20422 9.65862 -1.21782 -42.773 3.47176 -3.54013 -27.8796 -16.0995 6.70295 -2.45057 35.9327 -16.4377 5.82328 9.61819 -0.917488 2.39558 -0.836934 -5.22392 -0.446321 4.89987 -4.9113 1.01107 9.02112 -17.41 3.10226 -14.576 -0.0322638 0.0462048 0.000530889 0.662642 
188.294 102.91 3.25138 -3.40871 -0.902034 -89.0358 -1.40546 4.03997 1.97109 0.206734 7.99603 18.5222 -2.05487 -12.15 -0.0287809 -1.31556e-009 8.75248e-006 -1.48226e-008 1.34239 7.62927 -0.0853411 -2.13797 -4.99233 0.38175 38.8981 1.75907 -0.0815303 38.2399 -17.7517 2.28639 7.38033 34.1851 10.1124 -7.28128 9.6585 -1.25039 -42.7514 3.47202 -3.54401 -27.9008 -16.6069 6.49448 -2.62312 36.1826 -16.1519 5.82328 9.61819 -0.917488 2.02173 -1.44513 -6.30936 -0.460047 4.8375 -4.92165 1.01971 9.07242 -17.4179 3.05744 -14.5983 -0.0322671 0.0462048 0.000530889 0.662642 
188.281 102.911 3.20771 -3.40196 -0.92449 -89.0035 -1.40114 4.02973 1.96239 0.215892 8.01409 18.4948 -2.0987 -12.1426 -0.0287801 -1.31556e-009 8.75248e-006 -1.48226e-008 1.25987 7.48223 -0.00712318 -2.01595 -4.72958 0.446214 38.6523 1.75093 -0.0815299 38.4127 -17.8866 2.31441 7.19462 34.6367 10.2283 -7.23065 9.65815 -1.17202 -42.9607 3.49727 -3.56263 -27.8319 -16.5751 6.36801 -2.71588 36.044 -16.0837 5.82328 9.61819 -0.917488 1.65578 -1.80901 -7.01372 -0.445325 4.84793 -4.90739 1.0093 9.05939 -17.4489 3.01076 -14.6277 -0.0322714 0.0462048 0.000530889 0.662642 
188.256 102.911 3.15418 -3.40741 -0.945392 -88.9243 -1.38124 4.04475 1.96892 0.223768 8.01124 18.4156 -2.15977 -12.1295 -0.0287786 -1.31556e-009 8.75248e-006 -1.48226e-008 1.17313 7.51742 0.0516871 -1.89373 -4.74094 0.48598 38.378 1.74255 -0.0821646 38.6315 -17.5082 2.14057 7.12508 34.1576 10.4844 -7.01213 9.65507 -0.959135 -43.1492 3.5197 -3.57864 -27.8605 -16.2098 6.38941 -2.60399 35.8591 -16.2789 5.82328 9.61819 -0.917488 1.61496 -1.6527 -6.51362 -0.423376 4.9238 -4.90742 1.02348 8.96593 -17.5343 3.00736 -14.6354 -0.0322725 0.0462048 0.000530889 0.662642 
188.245 102.912 3.09193 -3.40406 -0.96866 -88.8079 -1.36635 4.04974 1.95797 0.248787 7.98124 18.3181 -2.21454 -12.0942 -0.0289361 -1.31556e-009 8.75248e-006 -1.48226e-008 1.34194 7.80358 0.0190056 -2.23261 -5.16638 0.501043 38.5864 1.74705 -0.0882205 38.5083 -16.9995 1.89434 7.28746 33.2749 10.5601 -6.98056 9.64735 -0.78658 -42.9437 3.49239 -3.55537 -28.1027 -15.8901 6.53022 -2.38641 35.9517 -16.522 5.82328 9.61819 -0.917488 1.86594 -1.31088 -5.64912 -0.415252 4.98094 -4.94001 1.07577 8.88626 -17.6365 2.99254 -14.6185 -0.0333717 0.0462048 0.000530889 0.662642 
188.248 102.913 3.02712 -3.40086 -0.973388 -88.718 -1.32912 4.04485 1.96588 0.267654 7.95897 18.2121 -2.23751 -12.0647 -0.0296533 -1.31556e-009 8.75248e-006 -1.48226e-008 1.73911 8.12396 -0.0710565 -2.9301 -5.66489 0.512538 39.1875 1.76157 -0.103713 38.0604 -16.8062 1.75666 7.52949 32.7911 10.3949 -7.15626 9.64122 -0.80256 -42.5095 3.43546 -3.50718 -28.3651 -15.5716 6.69756 -2.23866 36.0216 -16.6906 5.82328 9.61819 -0.917488 2.13343 -1.38915 -5.44072 -0.393431 5.003 -4.96533 1.13431 8.85153 -17.7076 2.90674 -14.6122 -0.0385171 0.0462048 0.000530889 0.662642 
188.24 102.914 2.96435 -3.42191 -0.947062 -88.6739 -1.24643 4.07004 2.02796 0.262972 7.95598 18.0885 -2.25252 -12.0674 -0.0302556 -1.31556e-009 8.75248e-006 -1.48226e-008 1.99081 8.20644 -0.134 -3.33102 -5.78527 0.508498 39.5444 1.77151 -0.109957 37.7615 -16.9254 1.80779 7.61739 33.0011 10.2188 -6.97201 9.6508 -0.845503 -42.3254 3.41204 -3.48783 -28.4154 -15.1738 6.84463 -2.20402 35.7393 -16.821 5.82328 9.61819 -0.917488 2.23462 -1.79964 -5.50069 -0.334612 5.07661 -4.96201 1.18436 8.76267 -17.7582 2.79235 -14.6185 -0.0454693 0.0462048 0.000530889 0.662642 
188.218 102.917 2.90436 -3.4573 -0.922984 -88.6286 -1.17468 4.13684 2.07801 0.27372 7.91993 17.9868 -2.30096 -12.0636 -0.0306355 -1.31556e-009 8.75248e-006 -1.48226e-008 1.87009 8.08315 -0.140862 -3.11819 -5.56735 0.469545 39.35 1.77104 -0.0957043 37.882 -17.0942 1.95075 7.50221 33.6383 10.1984 -6.31072 9.66831 -0.65936 -42.5231 3.43938 -3.51301 -28.2279 -15.0219 6.96481 -2.25766 35.4348 -16.8437 5.82328 9.61819 -0.917488 2.1682 -1.94948 -5.09835 -0.282498 5.21541 -4.97438 1.24509 8.59431 -17.8032 2.70986 -14.587 -0.0511252 0.0462048 0.000530889 0.662642 
188.205 102.925 2.84537 -3.46307 -0.937486 -88.5675 -1.17503 4.19437 2.04349 0.329098 7.81633 17.9609 -2.36314 -12.0023 -0.0309368 -1.31556e-009 8.75248e-006 -1.48226e-008 1.54546 7.92519 -0.0928777 -2.61579 -5.30028 0.440333 38.8826 1.76309 -0.0762147 38.2178 -17.192 2.07564 7.37216 34.1221 10.24 -6.01032 9.66953 -0.411285 -42.9181 3.48773 -3.54998 -27.8366 -15.3029 6.98339 -2.44792 35.4979 -16.6021 5.82328 9.61819 -0.917488 1.89898 -2.04741 -4.76464 -0.282221 5.29489 -5.02385 1.31168 8.47737 -17.8175 2.63333 -14.5235 -0.0569372 0.0462048 0.000530889 0.662642 
188.213 102.933 2.78453 -3.42071 -0.978202 -88.5333 -1.20815 4.1919 1.97867 0.379193 7.7047 17.9782 -2.38935 -11.9135 -0.0313125 -1.31556e-009 8.75248e-006 -1.48226e-008 1.28644 7.77046 0.0122785 -2.22637 -5.05868 0.486955 38.4586 1.75138 -0.0682755 38.514 -17.2533 2.18875 7.40069 34.0306 10.2075 -6.56849 9.65229 -0.539406 -43.3816 3.53122 -3.56581 -27.2753 -15.5611 6.8425 -2.76503 35.6377 -16.2046 5.82328 9.61819 -0.917488 1.34564 -2.5396 -5.44429 -0.301757 5.24638 -5.05369 1.34557 8.48001 -17.8119 2.54341 -14.517 -0.0624648 0.0462048 0.000530889 0.662642 
188.226 102.935 2.72255 -3.36752 -1.01531 -88.5182 -1.20775 4.14634 1.96425 0.377068 7.65983 17.9556 -2.40062 -11.8661 -0.0319202 -1.31556e-009 8.75248e-006 -1.48226e-008 1.20038 7.71989 0.10728 -2.08858 -4.97049 0.562309 38.1789 1.74231 -0.0657813 38.7013 -17.2806 2.26129 7.49759 33.6372 10.1576 -7.20697 9.64857 -0.981516 -43.7533 3.55626 -3.55857 -26.7625 -15.3417 6.72101 -2.98294 35.4723 -16.0194 5.82328 9.61819 -0.917488 0.745201 -2.97229 -6.58955 -0.295912 5.16938 -5.03272 1.34183 8.50373 -17.8565 2.51282 -14.5788 -0.0657908 0.0462048 0.000530889 0.662642 
188.234 102.936 2.66401 -3.3524 -1.04686 -88.457 -1.18978 4.12272 1.96891 0.366388 7.65503 17.8818 -2.45414 -11.855 -0.0329091 -1.31556e-009 8.75248e-006 -1.48226e-008 1.26087 7.99708 0.0919472 -2.18374 -5.3381 0.558029 38.0976 1.7385 -0.0564799 38.7394 -17.2469 2.18072 7.4718 33.5959 10.2017 -7.06604 9.66346 -1.15628 -43.7979 3.55322 -3.5457 -26.5649 -14.931 6.86285 -2.92207 35.305 -16.1561 5.82328 9.61819 -0.917488 0.634037 -2.75484 -6.65111 -0.282301 5.16803 -5.01925 1.3438 8.47909 -17.9538 2.56391 -14.5969 -0.0682406 0.0462048 0.000530889 0.662642 
188.243 102.936 2.60651 -3.38484 -1.07092 -88.3653 -1.17953 4.15923 1.95923 0.387248 7.6192 17.8023 -2.52599 -11.8271 -0.0344225 -1.31556e-009 8.75248e-006 -1.48226e-008 1.35469 8.46933 0.00949613 -2.33654 -5.95549 0.491314 38.1499 1.73686 -0.0435275 38.6569 -17.2022 2.01991 7.35243 33.9763 10.2797 -6.55467 9.66729 -0.849553 -43.6102 3.53704 -3.54231 -26.5991 -14.8684 7.13003 -2.74165 35.5264 -16.3107 5.82328 9.61819 -0.917488 1.02107 -2.18834 -5.39641 -0.275035 5.22412 -5.04356 1.36959 8.44791 -18.0151 2.57373 -14.5479 -0.0695567 0.0462048 0.000530889 0.662642 
188.254 102.936 2.54049 -3.43301 -1.0749 -88.337 -1.13665 4.22074 2.00036 0.388047 7.5738 17.7271 -2.56104 -11.7953 -0.0366112 -1.31556e-009 8.75248e-006 -1.48226e-008 1.32346 8.60213 0.0148304 -2.27375 -6.04577 0.484633 38.0855 1.73694 -0.03558 38.6608 -17.2393 2.08082 7.35264 34.2143 10.2218 -6.60354 9.65286 -0.589978 -43.5953 3.54356 -3.55754 -26.5594 -15.0404 7.13465 -2.69741 35.7457 -16.2998 5.82328 9.61819 -0.917488 1.27302 -1.93612 -4.25819 -0.240025 5.28577 -5.04362 1.38927 8.41675 -18.0231 2.47965 -14.555 -0.0695292 0.0462048 0.000530889 0.662642 
188.262 102.935 2.47287 -3.44937 -1.0717 -88.3568 -1.06508 4.22371 2.08489 0.349842 7.59905 17.6608 -2.61202 -11.8097 -0.0397908 -1.31556e-009 8.75248e-006 -1.48226e-008 1.1709 8.26241 0.113635 -2.01082 -5.44977 0.548076 37.8435 1.73832 -0.0334641 38.8266 -17.2653 2.42607 7.51347 33.9647 10.0599 -7.10865 9.64456 -0.826572 -43.833 3.57781 -3.58899 -26.4182 -14.9133 6.85151 -2.75921 35.41 -16.3187 5.82328 9.61819 -0.917488 1.04725 -2.43829 -4.30987 -0.193621 5.33053 -5.00538 1.39913 8.34786 -18.0393 2.42709 -14.6233 -0.0678019 0.0462048 0.000530889 0.662642 
188.274 102.936 2.43624 -3.39926 -1.07219 -88.3373 -1.04639 4.12068 2.07506 0.364363 7.68295 17.6804 -2.76064 -11.8504 -0.0460149 -1.31556e-009 8.75248e-006 -1.48226e-008 1.16696 8.02028 0.156806 -1.94396 -5.04986 0.585866 37.7754 1.74075 -0.0377129 38.774 -16.799 2.65678 7.63858 33.0558 10.1659 -7.14895 9.66624 -1.27318 -43.9584 3.59749 -3.60863 -26.3902 -14.481 6.64674 -2.76576 34.8727 -16.4675 5.82328 9.61819 -0.917488 0.577772 -3.14589 -5.20515 -0.221763 5.30756 -5.03032 1.45376 8.29227 -17.956 2.56194 -14.5901 -0.0602204 0.0462048 0.000530889 0.662642 
188.309 102.951 2.46051 -3.2873 -0.992559 -88.4206 -1.05512 3.95033 1.9888 0.441904 7.75156 17.9036 -2.94022 -11.8942 -0.0535573 -1.31556e-009 8.75248e-006 -1.48226e-008 1.57585 8.28255 0.140232 -2.33329 -5.43252 0.635368 38.1521 1.74795 -0.0512104 38.102 -15.1357 2.48684 7.61401 30.7652 10.9682 -6.40645 9.70255 -1.47911 -43.801 3.57714 -3.59258 -26.5333 -14.3009 6.68963 -2.74606 34.8359 -16.5125 5.82328 9.61819 -0.917488 0.263832 -3.43062 -5.88983 -0.336568 5.14531 -5.17432 1.59162 8.35463 -17.4443 2.88263 -14.4572 -0.042992 0.0462048 0.000530889 0.662642 
